<svg width="190" height="58" viewBox="0 0 190 58" fill="none" xmlns="http://www.w3.org/2000/svg">
<path d="M181.421 55.9796H6.97771C3.14171 55.9796 0 52.8378 0 49.0019V7.13565C0 3.29966 3.14171 0.157951 6.97771 0.157951H181.421C185.257 0.157951 188.398 3.29966 188.398 7.13565V49.0019C188.398 52.8378 185.257 55.9796 181.421 55.9796Z" fill="#171A1F"/>
<path fill-rule="evenodd" clip-rule="evenodd" d="M92.6234 8.47612V17.2799H93.8345V8.47612H92.6234ZM58.8704 8.7632H61.886C63.2829 8.7632 64.3649 9.13401 65.1319 9.87564C65.899 10.6173 66.2825 11.6619 66.2825 13.0096C66.2825 14.3653 65.899 15.4179 65.1319 16.1675C64.3649 16.9092 63.2829 17.2799 61.886 17.2799H58.8704V8.7632ZM61.8135 16.2512C63.937 16.2512 64.9986 15.1707 64.9986 13.0096C64.9986 10.8645 63.937 9.79191 61.8135 9.79191H60.1179V16.2512H61.8135ZM70.5085 17.3637C69.9109 17.3637 69.3862 17.2361 68.934 16.9809C68.4818 16.7257 68.1306 16.3629 67.8804 15.8924C67.6381 15.4219 67.517 14.8717 67.517 14.2417C67.517 13.6117 67.6381 13.0615 67.8804 12.591C68.1306 12.1125 68.4818 11.7457 68.934 11.4905C69.3862 11.2353 69.9109 11.1077 70.5085 11.1077C71.098 11.1077 71.6187 11.2353 72.0709 11.4905C72.523 11.7457 72.8703 12.1125 73.1125 12.591C73.3627 13.0615 73.4879 13.6117 73.4879 14.2417C73.4879 14.8717 73.3627 15.4219 73.1125 15.8924C72.8703 16.3629 72.523 16.7257 72.0709 16.9809C71.6187 17.2361 71.098 17.3637 70.5085 17.3637ZM70.4964 16.4068C71.0615 16.4068 71.4935 16.2233 71.7922 15.8565C72.0911 15.4896 72.2404 14.9515 72.2404 14.2417C72.2404 13.5479 72.0869 13.0136 71.7802 12.6388C71.4814 12.264 71.0575 12.0766 70.5085 12.0766C69.9514 12.0766 69.5194 12.264 69.2125 12.6388C68.9058 13.0136 68.7523 13.5479 68.7523 14.2417C68.7523 14.9515 68.9017 15.4896 69.2005 15.8565C69.5072 16.2233 69.9392 16.4068 70.4964 16.4068ZM84.3059 11.2512H83.1069L81.4355 15.8565L79.752 11.2512H78.7831L77.0998 15.8565L75.4405 11.2512H74.1687L76.4941 17.2799H77.6083L79.2313 12.9139L80.8663 17.2799H81.9805L84.3059 11.2512ZM88.6899 11.1077C90.1514 11.1077 90.8821 11.9131 90.8821 13.524V17.2799H89.6588V13.5957C89.6588 13.0694 89.5538 12.6867 89.344 12.4474C89.1421 12.2082 88.8151 12.0886 88.3629 12.0886C87.8462 12.0886 87.4303 12.2481 87.1155 12.567C86.8086 12.886 86.6552 13.3127 86.6552 13.8469V17.2799H85.444V12.9498C85.444 12.3198 85.4118 11.7536 85.3472 11.2512H86.4856L86.5946 12.2919C86.7884 11.9091 87.067 11.6181 87.4303 11.4187C87.8017 11.2114 88.2216 11.1077 88.6899 11.1077ZM98.2556 17.3637C97.6582 17.3637 97.1334 17.2361 96.6812 16.9809C96.2291 16.7257 95.8778 16.3629 95.6276 15.8924C95.3854 15.4219 95.2642 14.8717 95.2642 14.2417C95.2642 13.6117 95.3854 13.0615 95.6276 12.591C95.8778 12.1125 96.2291 11.7457 96.6812 11.4905C97.1334 11.2353 97.6582 11.1077 98.2556 11.1077C98.845 11.1077 99.3659 11.2353 99.8181 11.4905C100.27 11.7457 100.617 12.1125 100.86 12.591C101.11 13.0615 101.235 13.6117 101.235 14.2417C101.235 14.8717 101.11 15.4219 100.86 15.8924C100.617 16.3629 100.27 16.7257 99.8181 16.9809C99.3659 17.2361 98.845 17.3637 98.2556 17.3637ZM98.2436 16.4068C98.8088 16.4068 99.2407 16.2233 99.5394 15.8565C99.8382 15.4896 99.9876 14.9515 99.9876 14.2417C99.9876 13.5479 99.8342 13.0136 99.5274 12.6388C99.2287 12.264 98.8047 12.0766 98.2556 12.0766C97.6986 12.0766 97.2666 12.264 96.9597 12.6388C96.653 13.0136 96.4995 13.5479 96.4995 14.2417C96.4995 14.9515 96.649 15.4896 96.9477 15.8565C97.2545 16.2233 97.6864 16.4068 98.2436 16.4068ZM108.248 17.2799V11.2512H107.037V12.2321C106.851 11.8732 106.585 11.5981 106.238 11.4068C105.89 11.2074 105.483 11.1077 105.014 11.1077C104.49 11.1077 104.021 11.2393 103.609 11.5024C103.198 11.7656 102.875 12.1364 102.641 12.6149C102.415 13.0934 102.302 13.6436 102.302 14.2656C102.302 14.8876 102.415 15.4338 102.641 15.9044C102.867 16.3669 103.182 16.7257 103.585 16.9809C103.997 17.2361 104.474 17.3637 105.014 17.3637C105.483 17.3637 105.89 17.268 106.238 17.0767C106.593 16.8852 106.859 16.6101 107.037 16.2512V17.2799H108.248ZM106.577 15.8446C106.278 16.2193 105.854 16.4068 105.305 16.4068C104.748 16.4068 104.312 16.2193 103.997 15.8446C103.69 15.4697 103.537 14.9434 103.537 14.2656C103.537 13.5798 103.69 13.0455 103.997 12.6627C104.312 12.272 104.744 12.0766 105.293 12.0766C105.85 12.0766 106.278 12.264 106.577 12.6388C106.884 13.0136 107.037 13.5479 107.037 14.2417C107.037 14.9275 106.884 15.4617 106.577 15.8446ZM115.629 8.47612V17.2799H114.417V16.2512C114.24 16.6101 113.973 16.8852 113.618 17.0767C113.271 17.268 112.863 17.3637 112.395 17.3637C111.87 17.3637 111.402 17.2321 110.99 16.9689C110.578 16.7058 110.255 16.339 110.021 15.8685C109.795 15.39 109.682 14.8398 109.682 14.2178C109.682 13.5957 109.795 13.0495 110.021 12.579C110.247 12.1085 110.562 11.7457 110.966 11.4905C111.377 11.2353 111.854 11.1077 112.395 11.1077C112.855 11.1077 113.259 11.2034 113.606 11.3948C113.961 11.5862 114.228 11.8573 114.405 12.2082V8.47612H115.629ZM112.673 16.4068C113.23 16.4068 113.658 16.2193 113.957 15.8446C114.264 15.4617 114.417 14.9275 114.417 14.2417C114.417 13.5559 114.264 13.0256 113.957 12.6508C113.658 12.268 113.234 12.0766 112.685 12.0766C112.128 12.0766 111.692 12.264 111.377 12.6388C111.071 13.0136 110.917 13.5399 110.917 14.2178C110.917 14.9035 111.071 15.4418 111.377 15.8326C111.692 16.2153 112.124 16.4068 112.673 16.4068ZM121.708 16.9809C122.16 17.2361 122.685 17.3637 123.283 17.3637C123.872 17.3637 124.393 17.2361 124.845 16.9809C125.297 16.7257 125.644 16.3629 125.887 15.8924C126.137 15.4219 126.262 14.8717 126.262 14.2417C126.262 13.6117 126.137 13.0615 125.887 12.591C125.644 12.1125 125.297 11.7457 124.845 11.4905C124.393 11.2353 123.872 11.1077 123.283 11.1077C122.685 11.1077 122.16 11.2353 121.708 11.4905C121.256 11.7457 120.905 12.1125 120.654 12.591C120.412 13.0615 120.291 13.6117 120.291 14.2417C120.291 14.8717 120.412 15.4219 120.654 15.8924C120.905 16.3629 121.256 16.7257 121.708 16.9809ZM124.566 15.8565C124.268 16.2233 123.836 16.4068 123.27 16.4068C122.713 16.4068 122.281 16.2233 121.975 15.8565C121.676 15.4896 121.526 14.9515 121.526 14.2417C121.526 13.5479 121.68 13.0136 121.987 12.6388C122.294 12.264 122.725 12.0766 123.283 12.0766C123.832 12.0766 124.256 12.264 124.554 12.6388C124.861 13.0136 125.014 13.5479 125.014 14.2417C125.014 14.9515 124.865 15.4896 124.566 15.8565ZM130.938 11.1077C132.399 11.1077 133.13 11.9131 133.13 13.524V17.2799H131.907V13.5957C131.907 13.0694 131.802 12.6867 131.592 12.4474C131.39 12.2082 131.063 12.0886 130.611 12.0886C130.094 12.0886 129.678 12.2481 129.363 12.567C129.056 12.886 128.903 13.3127 128.903 13.8469V17.2799H127.692V12.9498C127.692 12.3198 127.659 11.7536 127.595 11.2512H128.733L128.842 12.2919C129.036 11.9091 129.315 11.6181 129.678 11.4187C130.049 11.2114 130.469 11.1077 130.938 11.1077ZM139.687 15.2105V12.1843H141.37V11.2512H139.687V9.3254L138.463 9.74406V11.2512H137.276V12.1843H138.463V15.3063C138.463 15.9761 138.637 16.4865 138.984 16.8374C139.331 17.1883 139.82 17.3637 140.449 17.3637C140.789 17.3637 141.091 17.3199 141.358 17.2321V16.2512C141.14 16.3151 140.926 16.347 140.716 16.347C140.393 16.347 140.139 16.2633 139.953 16.0958C139.775 15.9203 139.687 15.6253 139.687 15.2105ZM145.745 11.1077C147.207 11.1077 147.938 11.9131 147.938 13.524V17.2799H146.715V13.5957C146.715 13.0694 146.61 12.6867 146.399 12.4474C146.197 12.2082 145.87 12.0886 145.418 12.0886C144.902 12.0886 144.486 12.2481 144.171 12.567C143.864 12.886 143.71 13.3127 143.71 13.8469V17.2799H142.5V8.47612H143.71V12.1843C143.913 11.8334 144.191 11.5662 144.546 11.3828C144.902 11.1994 145.301 11.1077 145.745 11.1077ZM150.527 14.2895H154.886V14.0862C154.886 13.1532 154.648 12.4235 154.172 11.8972C153.703 11.3709 153.058 11.1077 152.235 11.1077C151.67 11.1077 151.165 11.2393 150.72 11.5024C150.276 11.7656 149.929 12.1364 149.679 12.6149C149.437 13.0934 149.316 13.6396 149.316 14.2537C149.316 15.2185 149.595 15.9801 150.151 16.5384C150.709 17.0886 151.476 17.3637 152.453 17.3637C152.88 17.3637 153.305 17.296 153.725 17.1604C154.152 17.0168 154.504 16.8255 154.777 16.5862L154.402 15.7249C153.821 16.1795 153.18 16.4068 152.477 16.4068C151.217 16.4068 150.567 15.701 150.527 14.2895ZM151.132 12.4115C151.423 12.1404 151.799 12.0048 152.259 12.0048C152.711 12.0048 153.069 12.1404 153.336 12.4115C153.603 12.6747 153.761 13.0615 153.809 13.5718H150.576C150.656 13.0694 150.842 12.6827 151.132 12.4115ZM38.2176 8.78503C38.4473 10.8861 37.6143 12.9561 36.3921 14.4757C35.1192 15.976 33.0796 17.1195 31.0943 16.9722C30.8335 14.9526 31.8416 12.8011 32.9666 11.4908C34.2395 10.0022 36.4505 8.86255 38.2176 8.78503ZM40.8644 27.6669C40.8217 23.193 44.5319 21.0102 44.7205 20.8993L44.7219 20.8985C42.6122 17.8321 39.3385 17.4135 38.1863 17.3826C36.5057 17.2071 34.8556 17.8595 33.5068 18.3928C32.6501 18.7316 31.9148 19.0223 31.3705 19.0223C30.7513 19.0223 29.9952 18.72 29.1481 18.3813C28.0409 17.9386 26.7782 17.4337 25.4617 17.46C22.4722 17.5065 19.6734 19.2315 18.1398 21.9064C14.9752 27.3645 17.3341 35.3889 20.3664 39.8004C21.8844 41.9595 23.6555 44.3746 25.9794 44.2893C27.0315 44.2462 27.7782 43.933 28.5496 43.6095C29.4422 43.2354 30.3678 42.8472 31.8376 42.8472C33.2251 42.8472 34.1111 43.2234 34.9611 43.5842C35.7757 43.9299 36.5573 44.2616 37.7154 44.235C40.1521 44.1962 41.6857 42.0641 43.1531 39.8817C44.9086 37.4046 45.6093 34.9664 45.6405 34.8384C45.586 34.8191 40.911 33.0435 40.8644 27.6669ZM74.3299 41.7533H71.3081L69.6508 36.5727H63.8964L62.3206 41.7533H59.3766L65.0791 24.1145H68.6014L74.3299 41.7533ZM69.1501 34.398L67.6523 29.7934C67.4929 29.3208 67.1963 28.2131 66.7587 26.4702H66.7068C66.5326 27.2197 66.2508 28.3276 65.8651 29.7934L64.3932 34.398H69.1501ZM88.9936 35.2364C88.9936 37.4002 88.4078 39.1097 87.2325 40.3652C86.1795 41.484 84.8744 42.0417 83.3171 42.0417C81.6339 42.0417 80.4251 41.4398 79.6909 40.236H79.639V46.9378H76.8026V33.224C76.8026 31.8652 76.7656 30.4694 76.6988 29.0368H79.1941L79.3536 31.0528H79.4055C80.3509 29.5352 81.7896 28.7746 83.7139 28.7746C85.2192 28.7746 86.4762 29.3692 87.4847 30.5544C88.4894 31.7397 88.9936 33.3016 88.9936 35.2364ZM86.1016 35.3398C86.1016 34.1028 85.8198 33.08 85.26 32.2788C84.6483 31.4406 83.8213 31.0233 82.7906 31.0233C82.0899 31.0233 81.4559 31.2559 80.8848 31.7175C80.3139 32.1827 79.943 32.7883 79.7688 33.5379C79.6799 33.8887 79.639 34.173 79.639 34.3983V36.5178C79.639 37.4445 79.9245 38.2236 80.4919 38.8624C81.0628 39.4975 81.8007 39.8187 82.7128 39.8187C83.7806 39.8187 84.6148 39.4089 85.2081 38.5892C85.805 37.7657 86.1016 36.6838 86.1016 35.3398ZM101.923 40.3652C103.098 39.1097 103.684 37.4002 103.684 35.2364C103.684 33.3016 103.18 31.7397 102.175 30.5544C101.167 29.3692 99.9099 28.7746 98.4045 28.7746C96.4764 28.7746 95.0416 29.5352 94.0961 31.0528H94.0442L93.8847 29.0368H91.3895C91.4562 30.4694 91.4933 31.8652 91.4933 33.224V46.9378H94.3297V40.236H94.3816C95.1158 41.4398 96.3244 42.0417 98.0078 42.0417C99.5687 42.0417 100.874 41.484 101.923 40.3652ZM99.9506 32.2788C100.51 33.08 100.792 34.1028 100.792 35.3398C100.792 36.6838 100.496 37.7657 99.9024 38.5892C99.3091 39.4089 98.4749 39.8187 97.407 39.8187C96.4914 39.8187 95.7535 39.4975 95.1824 38.8624C94.6152 38.2236 94.3297 37.4445 94.3297 36.5178V34.3983C94.3297 34.173 94.3742 33.8887 94.4595 33.5379C94.6337 32.7883 95.0045 32.1827 95.5755 31.7175C96.1465 31.2559 96.7805 31.0233 97.4812 31.0233C98.5158 31.0233 99.3388 31.4406 99.9506 32.2788ZM120.109 36.8099C120.109 38.3091 119.587 39.5311 118.537 40.4728C117.384 41.5029 115.775 42.0162 113.714 42.0162C111.808 42.0162 110.28 41.6506 109.123 40.9159L109.78 38.5601C111.025 39.3097 112.394 39.6863 113.88 39.6863C114.948 39.6863 115.782 39.4462 116.379 38.9662C116.976 38.4863 117.273 37.8437 117.273 37.0388C117.273 36.3224 117.028 35.7205 116.539 35.2294C116.049 34.7383 115.234 34.2842 114.095 33.8632C110.996 32.7113 109.446 31.0238 109.446 28.8046C109.446 27.3534 109.991 26.1646 111.077 25.2414C112.16 24.3146 113.606 23.853 115.415 23.853C117.028 23.853 118.367 24.1337 119.435 24.6912L118.726 26.9953C117.729 26.4563 116.598 26.183 115.338 26.183C114.34 26.183 113.558 26.4267 113.002 26.9177C112.527 27.3534 112.294 27.8852 112.294 28.5129C112.294 29.2109 112.564 29.7868 113.106 30.241C113.58 30.6619 114.437 31.1124 115.682 31.6035C117.206 32.2128 118.326 32.9291 119.045 33.7489C119.75 34.5649 120.109 35.5877 120.109 36.8099ZM126.364 31.1576H129.49H129.493V29.0381H126.368V25.87L123.58 26.7082V29.0381H121.715V31.1576H123.58V37.5714C123.58 39.1776 123.895 40.3224 124.525 41.0017C125.159 41.6811 126.034 42.0208 127.154 42.0208C128.066 42.0208 128.8 41.9137 129.36 41.707L129.282 39.5616C128.948 39.6466 128.529 39.6909 128.022 39.6909C126.917 39.6909 126.364 38.9043 126.364 37.335V31.1576ZM143.606 35.289C143.606 37.2423 143.045 38.8485 141.922 40.1039C140.746 41.3963 139.186 42.0388 137.243 42.0388C135.367 42.0388 133.876 41.4185 132.764 40.1815C131.651 38.9446 131.095 37.379 131.095 35.4958C131.095 33.524 131.666 31.9103 132.816 30.6549C133.961 29.3995 135.507 28.7719 137.454 28.7719C139.33 28.7719 140.835 29.3922 141.974 30.6292C143.064 31.8366 143.606 33.3873 143.606 35.289ZM140.661 35.3813C140.661 34.2072 140.409 33.2028 139.901 32.3609C139.304 31.3454 138.455 30.8396 137.354 30.8396C136.212 30.8396 135.348 31.3454 134.751 32.3609C134.243 33.2028 133.991 34.2219 133.991 35.433C133.991 36.6072 134.243 37.6116 134.751 38.4498C135.363 39.4651 136.223 39.971 137.328 39.971C138.411 39.971 139.263 39.4541 139.875 38.4238C140.398 37.5709 140.661 36.5555 140.661 35.3813ZM151.936 31.4447C152.252 31.4447 152.549 31.4706 152.83 31.5223V28.8306C152.622 28.7972 152.385 28.7787 152.121 28.7787C151.387 28.7787 150.702 29.004 150.072 29.4582C149.422 29.9604 148.952 30.6362 148.651 31.4706H148.573L148.47 29.0372H145.996C146.067 30.241 146.104 31.5777 146.104 33.0437L146.078 41.7578H148.915V35.0819C148.915 34.0701 149.149 33.2319 149.623 32.5709C150.164 31.8214 150.94 31.4447 151.936 31.4447ZM165.52 34.7949C165.52 35.3007 165.487 35.7291 165.417 36.0762H156.904C156.937 37.3316 157.349 38.2953 158.139 38.9563C158.855 39.5507 159.785 39.8462 160.924 39.8462C162.185 39.8462 163.333 39.6468 164.367 39.2443L164.813 41.2051C163.604 41.7293 162.176 41.9914 160.53 41.9914C158.551 41.9914 156.993 41.4117 155.863 40.2486C154.736 39.0893 154.168 37.531 154.168 35.5777C154.168 33.6575 154.694 32.0625 155.747 30.7886C156.848 29.4297 158.34 28.7467 160.216 28.7467C162.054 28.7467 163.448 29.4261 164.393 30.7886C165.143 31.8705 165.52 33.2071 165.52 34.7949ZM162.814 34.06C162.833 33.2219 162.648 32.4982 162.262 31.889C161.769 31.1025 161.016 30.711 160.001 30.711C159.073 30.711 158.317 31.0951 157.742 31.8631C157.267 32.4724 156.989 33.2071 156.904 34.06H162.814Z" fill="white"/>
</svg>
