<svg width="188" height="56" viewBox="0 0 188 56" fill="none" xmlns="http://www.w3.org/2000/svg">
<g clip-path="url(#clip0_3_20)">
<path d="M181.016 55.406H8.27496C4.47638 55.406 1.36532 52.2877 1.36532 48.4803V6.92575C1.36532 3.11832 4.47638 0 8.27496 0H181.016C184.815 0 187.926 3.11832 187.926 6.92575V48.4803C187.926 52.2877 184.815 55.406 181.016 55.406Z" fill="#171A1F"/>
<path fill-rule="evenodd" clip-rule="evenodd" d="M65.867 16.9629C66.5476 16.272 66.8931 15.3458 66.8931 14.1891C66.8931 13.9865 66.8793 13.777 66.8309 13.5606H62.8163V14.5614H65.8256C65.7651 15.2781 65.5353 15.8392 65.1311 16.246C64.5179 16.8608 63.7405 17.1723 62.8163 17.1723C61.9458 17.1723 61.1908 16.8608 60.5501 16.253C59.916 15.6366 59.5982 14.8315 59.5982 13.8515C59.5982 12.8715 59.916 12.0733 60.5501 11.4569C61.1908 10.8423 61.9458 10.5375 62.8163 10.5375C63.782 10.5375 64.5369 10.8613 65.0914 11.5175L65.8135 10.7868C65.4955 10.4025 65.0568 10.0908 64.5179 9.86053C63.9771 9.63197 63.4106 9.50904 62.8163 9.50904C61.6227 9.50904 60.6036 9.92805 59.7674 10.7609C58.9297 11.592 58.5116 12.6204 58.5116 13.8515C58.5116 15.0825 58.9297 16.1111 59.7674 16.949C60.6036 17.775 61.6227 18.1939 62.8163 18.1939C64.0653 18.1939 65.0844 17.7818 65.867 16.9629ZM69.4909 10.7189H73.2619V9.69911H68.4234V18.0031H73.2619V16.9832H69.4909V14.3514H72.8906V13.3507H69.4909V10.7189ZM77.7564 18.0031H76.6888V10.7189H74.3757V9.69911H80.071V10.7189H77.7564V18.0031ZM84.1925 9.69911V18.0031H85.2585V9.69911H84.1925ZM89.9827 18.0031H88.9238V10.7189H86.6022V9.69911H92.3044V10.7189H89.9827V18.0031ZM100.05 18.1939C101.258 18.1939 102.27 17.775 103.087 16.9352C103.902 16.0972 104.308 15.0687 104.308 13.8515C104.308 12.6412 103.902 11.6197 103.08 10.7747C102.263 9.92805 101.251 9.50904 100.05 9.50904C98.8358 9.50904 97.8235 9.92805 97.0065 10.7678C96.1912 11.6058 95.7852 12.6343 95.7852 13.8515C95.7852 15.0687 96.1912 16.0972 97.0065 16.9352C97.8235 17.775 98.8358 18.1939 100.05 18.1939ZM100.05 17.1723C99.1588 17.1723 98.4109 16.8608 97.7959 16.2391C97.1827 15.6175 96.8717 14.8194 96.8717 13.8515C96.8717 12.8836 97.1827 12.0854 97.7959 11.4638C98.4109 10.8423 99.1588 10.5306 100.05 10.5306C100.935 10.5306 101.69 10.8423 102.297 11.4638C102.911 12.0854 103.222 12.8836 103.222 13.8515C103.222 14.8194 102.911 15.6175 102.297 16.2391C101.69 16.8608 100.935 17.1723 100.05 17.1723ZM105.807 18.0031V9.69911H107.102L111.13 16.1574H111.177L111.13 14.561V9.69911H112.196V18.0031H111.084L106.865 11.2262H106.819L106.865 12.8296V18.0031H105.807ZM89.6257 36.0226C89.6257 32.6065 92.2772 30.1305 95.523 30.1305C98.7757 30.1305 101.427 32.6065 101.427 36.0226C101.427 39.411 98.7757 41.913 95.523 41.913C92.2772 41.913 89.6257 39.411 89.6257 36.0226ZM92.2099 36.0226C92.2099 38.1194 93.742 39.5929 95.523 39.5929C97.3039 39.5929 98.843 38.1194 98.843 36.0226C98.843 33.8981 97.3039 32.4506 95.523 32.4506C93.742 32.4506 92.2099 33.8981 92.2099 36.0226ZM76.7581 36.0226C76.7581 32.6065 79.4028 30.1305 82.6555 30.1305C85.9065 30.1305 88.5529 32.6065 88.5529 36.0226C88.5529 39.411 85.9065 41.913 82.6555 41.913C79.4028 41.913 76.7581 39.411 76.7581 36.0226ZM79.3354 36.0226C79.3354 38.1194 80.8728 39.5929 82.6555 39.5929C84.4365 39.5929 85.9687 38.1194 85.9687 36.0226C85.9687 33.8981 84.4365 32.4506 82.6555 32.4506C80.8728 32.4506 79.3354 33.8981 79.3354 36.0226ZM67.3437 34.4401V31.9365H75.7389C75.8253 32.3831 75.8737 32.9181 75.8737 33.4999C75.8737 35.3733 75.3606 37.6934 73.7144 39.3435C72.1079 41.0195 70.0644 41.913 67.3437 41.913C62.31 41.913 58.0796 37.8077 58.0796 32.7623C58.0796 27.7169 62.31 23.6116 67.3437 23.6116C70.1249 23.6116 72.1079 24.7077 73.5986 26.1343L71.8385 27.8986C70.7727 26.891 69.3286 26.1136 67.3437 26.1136C63.6731 26.1136 60.7986 29.0831 60.7986 32.7623C60.7986 36.4417 63.6731 39.411 67.3437 39.411C69.7258 39.411 71.0819 38.4501 71.9524 37.5843C72.6676 36.8676 73.134 35.839 73.3085 34.4401H67.3437ZM124.922 30.1305C127.972 30.1305 129.47 32.5597 129.955 33.8774L130.227 34.5474L122.365 37.8077C122.966 38.9921 123.904 39.5929 125.212 39.5929C126.528 39.5929 127.439 38.9435 128.107 37.9635L130.111 39.3019C129.47 40.2629 127.912 41.913 125.212 41.913C121.873 41.913 119.382 39.3228 119.382 36.0226C119.382 32.5182 121.899 30.1305 124.922 30.1305ZM125.01 32.4039C123.701 32.4039 121.873 33.5674 121.94 35.839L127.197 33.6541C126.907 32.9181 126.036 32.4039 125.01 32.4039ZM118.135 41.5545H115.551V24.2401H118.135V41.5545ZM111.232 31.4429H111.318V30.4889H113.768V41.0681C113.768 45.4156 111.211 47.2025 108.181 47.2025C105.335 47.2025 103.619 45.2807 102.972 43.7189L105.219 42.7787C105.623 43.7397 106.603 44.8824 108.181 44.8824C110.118 44.8824 111.318 43.6722 111.318 41.4196V40.5746H111.232C110.652 41.2845 109.544 41.913 108.142 41.913C105.198 41.913 102.507 39.3435 102.507 36.0416C102.507 32.7208 105.198 30.1305 108.142 30.1305C109.544 30.1305 110.652 30.7539 111.232 31.4429ZM105.091 36.0416C105.091 38.0986 106.582 39.5929 108.363 39.5929C110.118 39.5929 111.501 38.0986 111.501 36.0416C111.501 33.9656 110.118 32.4506 108.363 32.4506C106.582 32.4506 105.091 33.9656 105.091 36.0416ZM135.873 24.2401H142.054C144.909 24.2401 147.724 26.3162 147.724 29.6162C147.724 32.9181 144.916 34.9942 142.054 34.9942H138.451V41.5545H135.873V24.2401ZM138.451 32.5857H142.122C144.046 32.5857 145.145 30.9563 145.145 29.6162C145.145 28.2501 144.046 26.6486 142.122 26.6486H138.451V32.5857ZM153.458 32.7485C154.255 30.9218 156.192 30.0976 158.054 30.0976C161.016 30.0976 163.303 31.8151 163.303 34.8851V41.5268H160.814V40.1884H160.726C160.124 41.1009 159.167 41.8853 157.433 41.8853C155.165 41.8853 153.147 40.391 153.147 38.0709C153.147 35.5343 155.658 34.1752 158.12 34.1752C159.349 34.1752 160.347 34.5751 160.814 34.8453V34.6634C160.793 33.2419 159.437 32.4368 158.101 32.4368C157.143 32.4368 156.237 32.7485 155.746 33.7095L153.458 32.7485ZM155.725 38.1194C155.725 39.167 156.899 39.5859 157.743 39.5859C159.235 39.5859 160.611 38.4501 160.814 36.8467C160.124 36.5161 159.593 36.265 158.457 36.265C157.19 36.265 155.725 36.7792 155.725 38.1194ZM169.409 37.9825L172.371 30.4769H175.239L168.148 46.8026H165.455L168.081 40.9658L163.479 30.4769H166.259L169.321 37.9825H169.409ZM151.724 41.5545H149.14V24.2401H151.724V41.5545Z" fill="white"/>
<path fill-rule="evenodd" clip-rule="evenodd" d="M15.7872 43.0225C15.7872 43.4595 15.8567 43.806 15.966 44.0725L32.3044 27.7027L15.9679 11.3348C15.8576 11.6021 15.7872 11.9501 15.7872 12.3899V43.0225Z" fill="#FEFEFE"/>
<path fill-rule="evenodd" clip-rule="evenodd" d="M33.7177 27.7057L38.8238 32.8301L45.2909 29.1484C46.1384 28.6647 46.4137 28.1179 46.4137 27.7064C46.4137 27.2956 46.1392 26.7506 45.2925 26.2704L38.8278 22.5836L33.7177 27.7057Z" fill="#FEFEFE"/>
<path fill-rule="evenodd" clip-rule="evenodd" d="M33.0112 28.6145L16.8189 44.8462C17.1985 44.931 17.7046 44.856 18.3423 44.4937L37.798 33.4125L33.0112 28.6145Z" fill="#FEFEFE"/>
<path fill-rule="evenodd" clip-rule="evenodd" d="M18.3434 10.916C17.7052 10.5574 17.1989 10.4839 16.8189 10.5695L33.0112 26.7946L37.798 21.9966L18.345 10.9168L18.3434 10.916Z" fill="#FEFEFE"/>
</g>
<defs>
<clipPath id="clip0_3_20">
<rect width="187.457" height="55.406" fill="white" transform="translate(0.542923)"/>
</clipPath>
</defs>
</svg>
