<svg width="31" height="31" viewBox="0 0 31 31" fill="none" xmlns="http://www.w3.org/2000/svg">
<g clip-path="url(#clip0_65_96)">
<path d="M30.6371 6.52272C29.5185 7.0134 28.3266 7.33864 27.0839 7.49656C28.3623 6.73328 29.338 5.53384 29.7967 4.08811C28.6048 4.79876 27.2888 5.30072 25.8863 5.58084C24.7546 4.37576 23.1415 3.62939 21.3818 3.62939C17.9678 3.62939 15.2192 6.40052 15.2192 9.79768C15.2192 10.2865 15.2606 10.7565 15.3621 11.2039C10.2353 10.9539 5.69887 8.49672 2.65139 4.75364C2.11935 5.67672 1.80727 6.73328 1.80727 7.87068C1.80727 10.0064 2.90707 11.8995 4.54643 12.9956C3.55567 12.9768 2.58371 12.6891 1.76027 12.236C1.76027 12.2548 1.76027 12.2793 1.76027 12.3037C1.76027 15.3004 3.89783 17.7896 6.70091 18.363C6.19895 18.5002 5.65187 18.566 5.08411 18.566C4.68931 18.566 4.29075 18.5434 3.91663 18.4607C4.71563 20.9028 6.98291 22.6983 9.67884 22.7565C7.58075 24.3978 4.91679 25.3867 2.03287 25.3867C1.52715 25.3867 1.04211 25.3641 0.557068 25.3021C3.28871 27.0636 6.52607 28.0694 10.0172 28.0694C21.3649 28.0694 27.5689 18.6694 27.5689 10.5215C27.5689 10.2489 27.5595 9.98568 27.5464 9.72436C28.7703 8.8558 29.7986 7.77104 30.6371 6.52272Z" fill="white"/>
</g>
<defs>
<clipPath id="clip0_65_96">
<rect width="30.08" height="30.08" fill="white" transform="translate(0.557068 0.80957)"/>
</clipPath>
</defs>
</svg>
