<svg width="31" height="31" viewBox="0 0 31 31" fill="none" xmlns="http://www.w3.org/2000/svg">
<g clip-path="url(#clip0_65_91)">
<path d="M30.4637 9.65294C30.3932 8.05467 30.1347 6.95587 29.7645 6.00375C29.3825 4.9931 28.7949 4.08827 28.0251 3.33607C27.2729 2.57217 26.3621 1.97859 25.3631 1.60261C24.4055 1.23236 23.3124 0.973904 21.7142 0.903436C20.104 0.827001 19.5928 0.809326 15.5089 0.809326C11.425 0.809326 10.9138 0.827001 9.30954 0.897468C7.71128 0.967936 6.61248 1.22662 5.66059 1.59664C4.64971 1.97859 3.74488 2.5662 2.99269 3.33607C2.22879 4.08827 1.63543 4.99907 1.25922 5.99801C0.888979 6.95587 0.63052 8.0487 0.560053 9.64697C0.483617 11.2572 0.465942 11.7684 0.465942 15.8523C0.465942 19.9362 0.483617 20.4474 0.554085 22.0516C0.624552 23.6499 0.883241 24.7487 1.25348 25.7008C1.63543 26.7115 2.22879 27.6163 2.99269 28.3685C3.74488 29.1324 4.65568 29.726 5.65463 30.1019C6.61248 30.4722 7.70531 30.7307 9.3038 30.8011C10.9078 30.8718 11.4192 30.8893 15.5031 30.8893C19.5871 30.8893 20.0982 30.8718 21.7025 30.8011C23.3007 30.7307 24.3995 30.4722 25.3514 30.1019C27.373 29.3204 28.9712 27.7221 29.7528 25.7008C30.1228 24.7429 30.3815 23.6499 30.452 22.0516C30.5224 20.4474 30.5401 19.9362 30.5401 15.8523C30.5401 11.7684 30.5341 11.2572 30.4637 9.65294ZM27.7549 21.9341C27.6902 23.4031 27.4434 24.1964 27.2378 24.7253C26.7323 26.0357 25.6923 27.0757 24.3819 27.5812C23.853 27.7868 23.054 28.0336 21.5907 28.0981C20.0041 28.1688 19.5283 28.1862 15.5148 28.1862C11.5014 28.1862 11.0196 28.1688 9.43877 28.0981C7.96974 28.0336 7.17646 27.7868 6.6476 27.5812C5.99549 27.3402 5.40191 26.9582 4.92011 26.4587C4.42063 25.971 4.03869 25.3834 3.79767 24.7312C3.59201 24.2024 3.34525 23.4031 3.28075 21.9401C3.21006 20.3535 3.19261 19.8774 3.19261 15.864C3.19261 11.8505 3.21006 11.3687 3.28075 9.78813C3.34525 8.3191 3.59201 7.52582 3.79767 6.99696C4.03869 6.34462 4.42063 5.75126 4.92607 5.26923C5.41361 4.76976 6.00123 4.38781 6.65357 4.14703C7.18242 3.94136 7.98167 3.69461 9.44474 3.62988C11.0313 3.55941 11.5074 3.54174 15.5206 3.54174C19.54 3.54174 20.0158 3.55941 21.5967 3.62988C23.0657 3.69461 23.859 3.94136 24.3878 4.14703C25.0399 4.38781 25.6335 4.76976 26.1153 5.26923C26.6148 5.757 26.9967 6.34462 27.2378 6.99696C27.4434 7.52582 27.6902 8.32483 27.7549 9.78813C27.8254 11.3747 27.843 11.8505 27.843 15.864C27.843 19.8774 27.8254 20.3475 27.7549 21.9341Z" fill="white"/>
<path d="M15.5089 8.12524C11.2429 8.12524 7.78174 11.5862 7.78174 15.8524C7.78174 20.1186 11.2429 23.5795 15.5089 23.5795C19.7751 23.5795 23.236 20.1186 23.236 15.8524C23.236 11.5862 19.7751 8.12524 15.5089 8.12524ZM15.5089 20.8648C12.7413 20.8648 10.4965 18.6202 10.4965 15.8524C10.4965 13.0846 12.7413 10.84 15.5089 10.84C18.2766 10.84 20.5213 13.0846 20.5213 15.8524C20.5213 18.6202 18.2766 20.8648 15.5089 20.8648Z" fill="white"/>
<path d="M25.3456 7.81981C25.3456 8.816 24.5379 9.62374 23.5414 9.62374C22.5452 9.62374 21.7375 8.816 21.7375 7.81981C21.7375 6.82338 22.5452 6.01587 23.5414 6.01587C24.5379 6.01587 25.3456 6.82338 25.3456 7.81981Z" fill="white"/>
</g>
<defs>
<clipPath id="clip0_65_91">
<rect width="30.08" height="30.08" fill="white" transform="translate(0.413025 0.80957)"/>
</clipPath>
</defs>
</svg>
