<svg width="31" height="31" viewBox="0 0 31 31" fill="none" xmlns="http://www.w3.org/2000/svg">
<g clip-path="url(#clip0_65_104)">
<path d="M5.33205 27.375H23.2034L22.3498 24.6114L24.3915 26.3636L26.2627 28.0405L29.6718 30.8894V3.91133C29.5866 2.23437 28.1427 0.809326 26.353 0.809326L5.33832 0.813086C3.54981 0.813086 2.09845 2.24063 2.09845 3.9176V24.2717C2.09845 26.0402 3.5473 27.375 5.33205 27.375ZM18.5522 7.93203L18.5109 7.94707L18.5259 7.93203H18.5522ZM8.98803 9.52251C11.2854 7.85056 13.4148 7.93077 13.4148 7.93077L13.5865 8.09997C10.7753 8.77051 9.50064 10.0263 9.50064 10.0263C9.50064 10.0263 9.84155 9.85965 10.4369 9.60523C14.2232 8.11627 18.358 8.22405 22.1856 10.1091C22.1856 10.1091 20.9085 8.93469 18.2702 8.18269L18.5033 7.95333C18.8681 7.95459 20.7982 8.02227 22.8637 9.53253C22.8637 9.53253 25.1748 13.4805 25.1748 18.3309C25.0984 18.2382 23.741 20.419 20.248 20.4942C20.248 20.4942 19.6564 19.8249 19.2353 19.2409C21.2782 18.6543 22.0428 17.4812 22.0428 17.4812C21.3722 17.9036 20.7606 18.1542 20.2643 18.4049C19.501 18.7408 18.7365 18.9062 17.9732 19.0754C14.3586 19.662 12.3294 18.6806 10.4118 17.9023L9.75632 17.5689C9.75632 17.5689 10.5196 18.742 12.4811 19.3286C11.966 19.9164 11.4558 20.5844 11.4558 20.5844C7.96406 20.5017 6.69067 18.3209 6.69067 18.3209C6.69067 13.463 8.98803 9.52251 8.98803 9.52251Z" fill="white"/>
<path d="M18.7779 16.8163C19.669 16.8163 20.3947 16.0643 20.3947 15.1368C20.3947 14.2156 19.6728 13.4636 18.7779 13.4636V13.4674C17.8905 13.4674 17.1636 14.2169 17.1611 15.1443C17.1611 16.0643 17.8868 16.8163 18.7779 16.8163Z" fill="white"/>
<path d="M12.99 16.8163C13.8811 16.8163 14.6068 16.0643 14.6068 15.1368C14.6068 14.2156 13.8861 13.4636 12.995 13.4636L12.99 13.4674C12.0988 13.4674 11.3732 14.2169 11.3732 15.1443C11.3732 16.0643 12.0988 16.8163 12.99 16.8163Z" fill="white"/>
</g>
<defs>
<clipPath id="clip0_65_104">
<rect width="30.08" height="30.08" fill="white" transform="translate(0.845154 0.80957)"/>
</clipPath>
</defs>
</svg>
